<?xml version="1.0" encoding="UTF-8" standalone="no"?>
<!DOCTYPE svg PUBLIC "-//W3C//DTD SVG 1.1//EN"
 "http://www.w3.org/Graphics/SVG/1.1/DTD/svg11.dtd">
<!-- Generated by graphviz version 2.46.1 (0)
 -->
<!-- Title: snakemake_dag Pages: 1 -->
<svg width="1300pt" height="260pt"
 viewBox="0.00 0.00 1300.00 260.00" xmlns="http://www.w3.org/2000/svg" xmlns:xlink="http://www.w3.org/1999/xlink">
<g id="graph0" class="graph" transform="scale(1 1) rotate(0) translate(4 256)">
<title>snakemake_dag</title>
<polygon fill="white" stroke="transparent" points="-4,4 -4,-256 1296,-256 1296,4 -4,4"/>
<!-- 0 -->
<g id="node1" class="node">
<title>0</title>
<path fill="none" stroke="#56a9d8" stroke-width="2" d="M660.5,-36C660.5,-36 630.5,-36 630.5,-36 624.5,-36 618.5,-30 618.5,-24 618.5,-24 618.5,-12 618.5,-12 618.5,-6 624.5,0 630.5,0 630.5,0 660.5,0 660.5,0 666.5,0 672.5,-6 672.5,-12 672.5,-12 672.5,-24 672.5,-24 672.5,-30 666.5,-36 660.5,-36"/>
<text text-anchor="middle" x="645.5" y="-15.5" font-family="sans" font-size="10.00">all</text>
</g>
<!-- 1 -->
<g id="node2" class="node">
<title>1</title>
<path fill="none" stroke="#d85656" stroke-width="2" d="M660.5,-108C660.5,-108 630.5,-108 630.5,-108 624.5,-108 618.5,-102 618.5,-96 618.5,-96 618.5,-84 618.5,-84 618.5,-78 624.5,-72 630.5,-72 630.5,-72 660.5,-72 660.5,-72 666.5,-72 672.5,-78 672.5,-84 672.5,-84 672.5,-96 672.5,-96 672.5,-102 666.5,-108 660.5,-108"/>
<text text-anchor="middle" x="645.5" y="-87.5" font-family="sans" font-size="10.00">variants</text>
</g>
<!-- 1&#45;&gt;0 -->
<g id="edge1" class="edge">
<title>1&#45;&gt;0</title>
<path fill="none" stroke="grey" stroke-width="2" d="M645.5,-71.7C645.5,-63.98 645.5,-54.71 645.5,-46.11"/>
<polygon fill="grey" stroke="grey" stroke-width="2" points="649,-46.1 645.5,-36.1 642,-46.1 649,-46.1"/>
</g>
<!-- 2 -->
<g id="node3" class="node">
<title>2</title>
<path fill="none" stroke="#59d856" stroke-width="2" d="M101,-180C101,-180 12,-180 12,-180 6,-180 0,-174 0,-168 0,-168 0,-156 0,-156 0,-150 6,-144 12,-144 12,-144 101,-144 101,-144 107,-144 113,-150 113,-156 113,-156 113,-168 113,-168 113,-174 107,-180 101,-180"/>
<text text-anchor="middle" x="56.5" y="-165" font-family="sans" font-size="10.00">map_extracted_reads</text>
<text text-anchor="middle" x="56.5" y="-154" font-family="sans" font-size="10.00">sample: s01</text>
</g>
<!-- 2&#45;&gt;1 -->
<g id="edge2" class="edge">
<title>2&#45;&gt;1</title>
<path fill="none" stroke="grey" stroke-width="2" d="M113.11,-145.64C115.94,-145.05 118.74,-144.5 121.5,-144 302.26,-111.42 521.97,-97.34 608.21,-92.78"/>
<polygon fill="grey" stroke="grey" stroke-width="2" points="608.49,-96.27 618.3,-92.26 608.13,-89.28 608.49,-96.27"/>
</g>
<!-- 3 -->
<g id="node4" class="node">
<title>3</title>
<path fill="none" stroke="#56d8a9" stroke-width="2" d="M276,-252C276,-252 231,-252 231,-252 225,-252 219,-246 219,-240 219,-240 219,-228 219,-228 219,-222 225,-216 231,-216 231,-216 276,-216 276,-216 282,-216 288,-222 288,-228 288,-228 288,-240 288,-240 288,-246 282,-252 276,-252"/>
<text text-anchor="middle" x="253.5" y="-231.5" font-family="sans" font-size="10.00">extract_L01</text>
</g>
<!-- 3&#45;&gt;2 -->
<g id="edge12" class="edge">
<title>3&#45;&gt;2</title>
<path fill="none" stroke="grey" stroke-width="2" d="M218.73,-220.65C189.88,-210.39 148.24,-195.6 114.37,-183.56"/>
<polygon fill="grey" stroke="grey" stroke-width="2" points="115.18,-180.14 104.59,-180.09 112.84,-186.73 115.18,-180.14"/>
</g>
<!-- 4 -->
<g id="node5" class="node">
<title>4</title>
<path fill="none" stroke="#59d856" stroke-width="2" d="M232,-180C232,-180 143,-180 143,-180 137,-180 131,-174 131,-168 131,-168 131,-156 131,-156 131,-150 137,-144 143,-144 143,-144 232,-144 232,-144 238,-144 244,-150 244,-156 244,-156 244,-168 244,-168 244,-174 238,-180 232,-180"/>
<text text-anchor="middle" x="187.5" y="-165" font-family="sans" font-size="10.00">map_extracted_reads</text>
<text text-anchor="middle" x="187.5" y="-154" font-family="sans" font-size="10.00">sample: s02</text>
</g>
<!-- 3&#45;&gt;4 -->
<g id="edge13" class="edge">
<title>3&#45;&gt;4</title>
<path fill="none" stroke="grey" stroke-width="2" d="M237.19,-215.7C229.19,-207.22 219.43,-196.86 210.68,-187.58"/>
<polygon fill="grey" stroke="grey" stroke-width="2" points="213.03,-184.98 203.63,-180.1 207.94,-189.78 213.03,-184.98"/>
</g>
<!-- 5 -->
<g id="node6" class="node">
<title>5</title>
<path fill="none" stroke="#59d856" stroke-width="2" d="M363,-180C363,-180 274,-180 274,-180 268,-180 262,-174 262,-168 262,-168 262,-156 262,-156 262,-150 268,-144 274,-144 274,-144 363,-144 363,-144 369,-144 375,-150 375,-156 375,-156 375,-168 375,-168 375,-174 369,-180 363,-180"/>
<text text-anchor="middle" x="318.5" y="-165" font-family="sans" font-size="10.00">map_extracted_reads</text>
<text text-anchor="middle" x="318.5" y="-154" font-family="sans" font-size="10.00">sample: s03</text>
</g>
<!-- 3&#45;&gt;5 -->
<g id="edge14" class="edge">
<title>3&#45;&gt;5</title>
<path fill="none" stroke="grey" stroke-width="2" d="M269.57,-215.7C277.44,-207.22 287.06,-196.86 295.67,-187.58"/>
<polygon fill="grey" stroke="grey" stroke-width="2" points="298.38,-189.81 302.62,-180.1 293.25,-185.05 298.38,-189.81"/>
</g>
<!-- 6 -->
<g id="node7" class="node">
<title>6</title>
<path fill="none" stroke="#59d856" stroke-width="2" d="M494,-180C494,-180 405,-180 405,-180 399,-180 393,-174 393,-168 393,-168 393,-156 393,-156 393,-150 399,-144 405,-144 405,-144 494,-144 494,-144 500,-144 506,-150 506,-156 506,-156 506,-168 506,-168 506,-174 500,-180 494,-180"/>
<text text-anchor="middle" x="449.5" y="-165" font-family="sans" font-size="10.00">map_extracted_reads</text>
<text text-anchor="middle" x="449.5" y="-154" font-family="sans" font-size="10.00">sample: s04</text>
</g>
<!-- 3&#45;&gt;6 -->
<g id="edge15" class="edge">
<title>3&#45;&gt;6</title>
<path fill="none" stroke="grey" stroke-width="2" d="M288.09,-220.65C316.8,-210.39 358.23,-195.6 391.92,-183.56"/>
<polygon fill="grey" stroke="grey" stroke-width="2" points="393.42,-186.75 401.66,-180.09 391.06,-180.15 393.42,-186.75"/>
</g>
<!-- 4&#45;&gt;1 -->
<g id="edge3" class="edge">
<title>4&#45;&gt;1</title>
<path fill="none" stroke="grey" stroke-width="2" d="M244.13,-145.76C246.95,-145.13 249.75,-144.54 252.5,-144 381.95,-118.44 537.85,-101.45 608.04,-94.52"/>
<polygon fill="grey" stroke="grey" stroke-width="2" points="608.54,-97.98 618.15,-93.53 607.86,-91.02 608.54,-97.98"/>
</g>
<!-- 5&#45;&gt;1 -->
<g id="edge4" class="edge">
<title>5&#45;&gt;1</title>
<path fill="none" stroke="grey" stroke-width="2" d="M375.17,-145.98C377.99,-145.29 380.77,-144.63 383.5,-144 463.23,-125.53 557.44,-107.35 608.35,-97.83"/>
<polygon fill="grey" stroke="grey" stroke-width="2" points="609.04,-101.26 618.23,-95.99 607.76,-94.38 609.04,-101.26"/>
</g>
<!-- 6&#45;&gt;1 -->
<g id="edge5" class="edge">
<title>6&#45;&gt;1</title>
<path fill="none" stroke="grey" stroke-width="2" d="M497.2,-143.97C531.55,-131.7 577.22,-115.38 608.76,-104.12"/>
<polygon fill="grey" stroke="grey" stroke-width="2" points="610.23,-107.31 618.47,-100.65 607.88,-100.72 610.23,-107.31"/>
</g>
<!-- 7 -->
<g id="node8" class="node">
<title>7</title>
<path fill="none" stroke="#59d856" stroke-width="2" d="M625,-180C625,-180 536,-180 536,-180 530,-180 524,-174 524,-168 524,-168 524,-156 524,-156 524,-150 530,-144 536,-144 536,-144 625,-144 625,-144 631,-144 637,-150 637,-156 637,-156 637,-168 637,-168 637,-174 631,-180 625,-180"/>
<text text-anchor="middle" x="580.5" y="-165" font-family="sans" font-size="10.00">map_extracted_reads</text>
<text text-anchor="middle" x="580.5" y="-154" font-family="sans" font-size="10.00">sample: s05</text>
</g>
<!-- 7&#45;&gt;1 -->
<g id="edge6" class="edge">
<title>7&#45;&gt;1</title>
<path fill="none" stroke="grey" stroke-width="2" d="M596.57,-143.7C604.44,-135.22 614.06,-124.86 622.67,-115.58"/>
<polygon fill="grey" stroke="grey" stroke-width="2" points="625.38,-117.81 629.62,-108.1 620.25,-113.05 625.38,-117.81"/>
</g>
<!-- 8 -->
<g id="node9" class="node">
<title>8</title>
<path fill="none" stroke="#afd856" stroke-width="2" d="M734,-252C734,-252 689,-252 689,-252 683,-252 677,-246 677,-240 677,-240 677,-228 677,-228 677,-222 683,-216 689,-216 689,-216 734,-216 734,-216 740,-216 746,-222 746,-228 746,-228 746,-240 746,-240 746,-246 740,-252 734,-252"/>
<text text-anchor="middle" x="711.5" y="-231.5" font-family="sans" font-size="10.00">extract_L02</text>
</g>
<!-- 8&#45;&gt;7 -->
<g id="edge16" class="edge">
<title>8&#45;&gt;7</title>
<path fill="none" stroke="grey" stroke-width="2" d="M679.45,-215.88C662.01,-206.55 640.23,-194.92 621.56,-184.94"/>
<polygon fill="grey" stroke="grey" stroke-width="2" points="623.14,-181.82 612.67,-180.19 619.84,-187.99 623.14,-181.82"/>
</g>
<!-- 9 -->
<g id="node10" class="node">
<title>9</title>
<path fill="none" stroke="#59d856" stroke-width="2" d="M756,-180C756,-180 667,-180 667,-180 661,-180 655,-174 655,-168 655,-168 655,-156 655,-156 655,-150 661,-144 667,-144 667,-144 756,-144 756,-144 762,-144 768,-150 768,-156 768,-156 768,-168 768,-168 768,-174 762,-180 756,-180"/>
<text text-anchor="middle" x="711.5" y="-165" font-family="sans" font-size="10.00">map_extracted_reads</text>
<text text-anchor="middle" x="711.5" y="-154" font-family="sans" font-size="10.00">sample: s06</text>
</g>
<!-- 8&#45;&gt;9 -->
<g id="edge17" class="edge">
<title>8&#45;&gt;9</title>
<path fill="none" stroke="grey" stroke-width="2" d="M711.5,-215.7C711.5,-207.98 711.5,-198.71 711.5,-190.11"/>
<polygon fill="grey" stroke="grey" stroke-width="2" points="715,-190.1 711.5,-180.1 708,-190.1 715,-190.1"/>
</g>
<!-- 10 -->
<g id="node11" class="node">
<title>10</title>
<path fill="none" stroke="#59d856" stroke-width="2" d="M887,-180C887,-180 798,-180 798,-180 792,-180 786,-174 786,-168 786,-168 786,-156 786,-156 786,-150 792,-144 798,-144 798,-144 887,-144 887,-144 893,-144 899,-150 899,-156 899,-156 899,-168 899,-168 899,-174 893,-180 887,-180"/>
<text text-anchor="middle" x="842.5" y="-165" font-family="sans" font-size="10.00">map_extracted_reads</text>
<text text-anchor="middle" x="842.5" y="-154" font-family="sans" font-size="10.00">sample: s07</text>
</g>
<!-- 8&#45;&gt;10 -->
<g id="edge18" class="edge">
<title>8&#45;&gt;10</title>
<path fill="none" stroke="grey" stroke-width="2" d="M743.55,-215.88C760.99,-206.55 782.77,-194.92 801.44,-184.94"/>
<polygon fill="grey" stroke="grey" stroke-width="2" points="803.16,-187.99 810.33,-180.19 799.86,-181.82 803.16,-187.99"/>
</g>
<!-- 9&#45;&gt;1 -->
<g id="edge7" class="edge">
<title>9&#45;&gt;1</title>
<path fill="none" stroke="grey" stroke-width="2" d="M695.19,-143.7C687.19,-135.22 677.43,-124.86 668.68,-115.58"/>
<polygon fill="grey" stroke="grey" stroke-width="2" points="671.03,-112.98 661.63,-108.1 665.94,-117.78 671.03,-112.98"/>
</g>
<!-- 10&#45;&gt;1 -->
<g id="edge8" class="edge">
<title>10&#45;&gt;1</title>
<path fill="none" stroke="grey" stroke-width="2" d="M794.56,-143.97C760.03,-131.7 714.13,-115.38 682.43,-104.12"/>
<polygon fill="grey" stroke="grey" stroke-width="2" points="683.26,-100.7 672.67,-100.65 680.92,-107.3 683.26,-100.7"/>
</g>
<!-- 11 -->
<g id="node12" class="node">
<title>11</title>
<path fill="none" stroke="#59d856" stroke-width="2" d="M1018,-180C1018,-180 929,-180 929,-180 923,-180 917,-174 917,-168 917,-168 917,-156 917,-156 917,-150 923,-144 929,-144 929,-144 1018,-144 1018,-144 1024,-144 1030,-150 1030,-156 1030,-156 1030,-168 1030,-168 1030,-174 1024,-180 1018,-180"/>
<text text-anchor="middle" x="973.5" y="-165" font-family="sans" font-size="10.00">map_extracted_reads</text>
<text text-anchor="middle" x="973.5" y="-154" font-family="sans" font-size="10.00">sample: s08</text>
</g>
<!-- 11&#45;&gt;1 -->
<g id="edge9" class="edge">
<title>11&#45;&gt;1</title>
<path fill="none" stroke="grey" stroke-width="2" d="M916.83,-145.97C914.01,-145.29 911.23,-144.63 908.5,-144 828.47,-125.49 733.9,-107.33 682.79,-97.82"/>
<polygon fill="grey" stroke="grey" stroke-width="2" points="683.34,-94.36 672.87,-95.98 682.07,-101.25 683.34,-94.36"/>
</g>
<!-- 12 -->
<g id="node13" class="node">
<title>12</title>
<path fill="none" stroke="#d8ac56" stroke-width="2" d="M1127,-252C1127,-252 1082,-252 1082,-252 1076,-252 1070,-246 1070,-240 1070,-240 1070,-228 1070,-228 1070,-222 1076,-216 1082,-216 1082,-216 1127,-216 1127,-216 1133,-216 1139,-222 1139,-228 1139,-228 1139,-240 1139,-240 1139,-246 1133,-252 1127,-252"/>
<text text-anchor="middle" x="1104.5" y="-231.5" font-family="sans" font-size="10.00">extract_L03</text>
</g>
<!-- 12&#45;&gt;11 -->
<g id="edge19" class="edge">
<title>12&#45;&gt;11</title>
<path fill="none" stroke="grey" stroke-width="2" d="M1072.45,-215.88C1055.01,-206.55 1033.23,-194.92 1014.56,-184.94"/>
<polygon fill="grey" stroke="grey" stroke-width="2" points="1016.14,-181.82 1005.67,-180.19 1012.84,-187.99 1016.14,-181.82"/>
</g>
<!-- 13 -->
<g id="node14" class="node">
<title>13</title>
<path fill="none" stroke="#59d856" stroke-width="2" d="M1149,-180C1149,-180 1060,-180 1060,-180 1054,-180 1048,-174 1048,-168 1048,-168 1048,-156 1048,-156 1048,-150 1054,-144 1060,-144 1060,-144 1149,-144 1149,-144 1155,-144 1161,-150 1161,-156 1161,-156 1161,-168 1161,-168 1161,-174 1155,-180 1149,-180"/>
<text text-anchor="middle" x="1104.5" y="-165" font-family="sans" font-size="10.00">map_extracted_reads</text>
<text text-anchor="middle" x="1104.5" y="-154" font-family="sans" font-size="10.00">sample: s09</text>
</g>
<!-- 12&#45;&gt;13 -->
<g id="edge20" class="edge">
<title>12&#45;&gt;13</title>
<path fill="none" stroke="grey" stroke-width="2" d="M1104.5,-215.7C1104.5,-207.98 1104.5,-198.71 1104.5,-190.11"/>
<polygon fill="grey" stroke="grey" stroke-width="2" points="1108,-190.1 1104.5,-180.1 1101,-190.1 1108,-190.1"/>
</g>
<!-- 14 -->
<g id="node15" class="node">
<title>14</title>
<path fill="none" stroke="#59d856" stroke-width="2" d="M1280,-180C1280,-180 1191,-180 1191,-180 1185,-180 1179,-174 1179,-168 1179,-168 1179,-156 1179,-156 1179,-150 1185,-144 1191,-144 1191,-144 1280,-144 1280,-144 1286,-144 1292,-150 1292,-156 1292,-156 1292,-168 1292,-168 1292,-174 1286,-180 1280,-180"/>
<text text-anchor="middle" x="1235.5" y="-165" font-family="sans" font-size="10.00">map_extracted_reads</text>
<text text-anchor="middle" x="1235.5" y="-154" font-family="sans" font-size="10.00">sample: s10</text>
</g>
<!-- 12&#45;&gt;14 -->
<g id="edge21" class="edge">
<title>12&#45;&gt;14</title>
<path fill="none" stroke="grey" stroke-width="2" d="M1136.55,-215.88C1153.99,-206.55 1175.77,-194.92 1194.44,-184.94"/>
<polygon fill="grey" stroke="grey" stroke-width="2" points="1196.16,-187.99 1203.33,-180.19 1192.86,-181.82 1196.16,-187.99"/>
</g>
<!-- 13&#45;&gt;1 -->
<g id="edge10" class="edge">
<title>13&#45;&gt;1</title>
<path fill="none" stroke="grey" stroke-width="2" d="M1047.87,-145.76C1045.05,-145.13 1042.25,-144.54 1039.5,-144 909.72,-118.4 753.42,-101.42 683.06,-94.51"/>
<polygon fill="grey" stroke="grey" stroke-width="2" points="683.21,-91.01 672.92,-93.52 682.53,-97.97 683.21,-91.01"/>
</g>
<!-- 14&#45;&gt;1 -->
<g id="edge11" class="edge">
<title>14&#45;&gt;1</title>
<path fill="none" stroke="grey" stroke-width="2" d="M1178.89,-145.64C1176.06,-145.05 1173.26,-144.5 1170.5,-144 989.4,-111.38 769.27,-97.32 682.86,-92.78"/>
<polygon fill="grey" stroke="grey" stroke-width="2" points="682.92,-89.28 672.76,-92.26 682.56,-96.27 682.92,-89.28"/>
</g>
</g>
</svg>
